<?xml version="1.0" encoding="iso-8859-1"?>
<!-- Generator: Adobe Illustrator 19.0.0, SVG Export Plug-In . SVG Version: 6.00 Build 0)  -->
<svg xmlns="http://www.w3.org/2000/svg" xmlns:xlink="http://www.w3.org/1999/xlink" version="1.1" id="Capa_1" x="0px" y="0px" viewBox="0 0 512.013 512.013" style="enable-background:new 0 0 512.013 512.013;" xml:space="preserve" width="512px" height="512px">
<g>
	<g>
		<path d="M373.333,32.007H10.667C4.779,32.007,0,36.785,0,42.673v320c0,5.888,4.779,10.667,10.667,10.667h362.667    c5.888,0,10.667-4.779,10.667-10.667v-320C384,36.785,379.221,32.007,373.333,32.007z M362.667,352.007H21.333V53.34h341.333    V352.007z" fill="#FFFFFF"/>
	</g>
</g>
<g>
	<g>
		<path d="M507.264,204.465l-128-85.333c-4.843-3.243-11.499-1.941-14.784,2.965c-3.264,4.907-1.92,11.52,2.965,14.784    l119.637,79.765L348.053,454.94L165.205,353.351c-5.141-2.88-11.648-1.045-14.528,4.139c-2.859,5.163-1.003,11.648,4.139,14.507    l192,106.667c1.643,0.917,3.413,1.344,5.184,1.344c3.669,0,7.232-1.899,9.216-5.291l149.333-256    C513.408,213.831,511.957,207.58,507.264,204.465z" fill="#FFFFFF"/>
	</g>
</g>
<g>
	<g>
		<path d="M192,117.34c-35.285,0-64,28.715-64,64s28.715,64,64,64s64-28.715,64-64S227.285,117.34,192,117.34z M192,224.007    c-23.531,0-42.667-19.136-42.667-42.667c0-23.531,19.136-42.667,42.667-42.667s42.667,19.136,42.667,42.667    C234.667,204.871,215.531,224.007,192,224.007z" fill="#FFFFFF"/>
	</g>
</g>
<g>
	<g>
		<path d="M192,224.007c-58.816,0-106.667,47.851-106.667,106.667v32c0,5.888,4.779,10.667,10.667,10.667h192    c5.888,0,10.667-4.779,10.667-10.667v-32C298.667,271.857,250.816,224.007,192,224.007z M277.333,352.007H106.667v-21.333    c0-47.061,38.272-85.333,85.333-85.333s85.333,38.272,85.333,85.333V352.007z" fill="#FFFFFF"/>
	</g>
</g>
<g>
</g>
<g>
</g>
<g>
</g>
<g>
</g>
<g>
</g>
<g>
</g>
<g>
</g>
<g>
</g>
<g>
</g>
<g>
</g>
<g>
</g>
<g>
</g>
<g>
</g>
<g>
</g>
<g>
</g>
</svg>
